<?xml version="1.0" encoding="UTF-8" standalone="no"?>
<svg
   width="2500"
   height="2500"
   viewBox="0 0 192.756 192.756"
   version="1.1"
   id="svg4"
   sodipodi:docname="analog-devices.svg"
   inkscape:export-filename="analog-devices.png"
   inkscape:export-xdpi="96"
   inkscape:export-ydpi="96"
   inkscape:version="1.3.2 (091e20e, 2023-11-25)"
   xmlns:inkscape="http://www.inkscape.org/namespaces/inkscape"
   xmlns:sodipodi="http://sodipodi.sourceforge.net/DTD/sodipodi-0.dtd"
   xmlns="http://www.w3.org/2000/svg"
   xmlns:svg="http://www.w3.org/2000/svg">
  <defs
     id="defs4" />
  <sodipodi:namedview
     id="namedview4"
     pagecolor="#ffffff"
     bordercolor="#000000"
     borderopacity="0.25"
     inkscape:showpageshadow="2"
     inkscape:pageopacity="0.0"
     inkscape:pagecheckerboard="0"
     inkscape:deskcolor="#d1d1d1"
     inkscape:export-bgcolor="#ffffffff"
     inkscape:zoom="0.0944"
     inkscape:cx="1250"
     inkscape:cy="1250"
     inkscape:window-width="2560"
     inkscape:window-height="1387"
     inkscape:window-x="0"
     inkscape:window-y="25"
     inkscape:window-maximized="1"
     inkscape:current-layer="svg4" />
  <g
     fill-rule="evenodd"
     clip-rule="evenodd"
     id="g4">
    <path
       fill="#ffffff"
       d="M 0,0 H 192.756 V 192.756 H 0 Z"
       id="path1" />
    <path
       d="m 2.834,69.23 h 54.624 v 54.678 H 2.834 Z"
       id="path2" />
    <path
       fill="#ffffff"
       d="M 11.028,115.715 V 77.424 l 38.237,19.173 z"
       id="path3" />
    <path
       d="m 70.022,92.445 7.975,-23.16 h 3.66 l 8.193,23.16 h -3.386 l -2.349,-6.664 h -8.521 l -2.185,6.664 z m 6.227,-9.395 h 6.828 l -3.113,-9.723 z m 14.093,9.395 v -23.16 h 3.714 l 11.143,18.681 V 69.285 h 2.895 v 23.16 h -3.385 L 93.346,74.092 v 18.354 h -3.004 z m 19.228,0 7.975,-23.16 h 3.66 l 8.193,23.16 h -3.387 l -2.35,-6.664 h -8.521 l -2.184,6.664 z m 6.282,-9.395 h 6.773 l -3.113,-9.723 z m 15.349,9.395 v -23.16 h 3.168 v 20.429 h 10.814 v 2.731 z m 13.764,-12.454 c 0,-4.916 3.824,-10.925 10.926,-10.925 4.807,0 10.652,2.95 10.869,11.908 0,6.555 -3.822,12.126 -11.58,12.126 -6.828,0.001 -10.215,-5.352 -10.215,-13.109 z m 2.896,1.53 c 0.273,2.95 1.475,8.521 7.318,8.958 4.316,0.546 8.686,-2.949 8.467,-10.706 -0.273,-4.261 -3.168,-7.975 -7.756,-7.975 -3.66,0 -8.029,2.731 -8.029,9.723 z m 20.157,-1.967 c 0.709,-5.462 3.877,-10.487 11.416,-10.706 4.588,0 8.74,3.168 8.957,7.429 h -2.895 c -0.273,-1.966 -2.949,-4.697 -6.336,-4.697 -3.879,0 -8.193,2.731 -8.193,9.177 0,4.479 1.365,9.505 7.756,9.505 2.404,0 7.43,-1.202 7.211,-7.539 h -6.992 v -2.731 h 9.668 v 12.454 h -2.184 l -0.492,-2.731 c -7.211,6.882 -18.901,2.73 -17.916,-10.161 z m -97.505,20.757 h 8.412 c 3.879,0 8.467,3.441 8.467,10.762 0,5.135 -1.802,11.853 -8.467,11.853 h -8.412 z m 2.732,19.774 h 6.337 c 6.172,0 6.609,-17.098 -0.875,-17.098 h -5.462 z m 17.37,2.84 v -22.614 h 14.584 v 2.459 H 93.346 v 7.265 h 11.363 v 2.731 H 93.346 v 7.538 h 12.345 v 2.621 z m 23.379,0 -7.539,-22.614 h 2.951 l 6.227,19.01 5.844,-19.01 h 3.006 l -7.539,22.614 z m 13.328,0 v -22.614 h 2.73 v 22.614 z m 6.391,-10.87 c 0.219,-5.135 2.295,-11.525 9.561,-11.962 2.512,0 7.1,1.201 8.412,7.593 h -2.896 c -2.131,-7.812 -11.908,-6.118 -12.072,3.823 0,13.001 12.072,10.979 12.455,3.223 h 3.004 c -0.49,4.151 -3.715,8.85 -8.686,8.85 -6.61,0.272 -9.778,-5.245 -9.778,-11.527 z m 22.014,10.87 v -22.614 h 14.529 v 2.459 h -11.854 v 7.265 h 11.363 v 2.731 h -11.363 v 7.538 h 12.346 v 2.621 z m 17.316,-7.265 h 2.785 c 0,7.047 10.215,6.828 10.871,1.967 0.709,-7.319 -13.656,-1.748 -12.947,-11.689 0.219,-3.168 2.678,-5.845 7.484,-5.845 4.806,0 7.975,2.458 7.756,6.827 h -2.676 c 0.383,-5.353 -9.615,-6.062 -9.887,-0.546 0.709,5.135 12.562,1.748 13.492,9.833 0.491,9.559 -17.097,10.542 -16.878,-0.547 z"
       id="path4" />
  </g>
</svg>
