<?xml version="1.0" encoding="UTF-8" standalone="no"?>
<svg
   id="logosandtypes_com"
   viewBox="0 0 150 150"
   version="1.1"
   sodipodi:docname="universitaet-bremen.svg"
   width="150"
   height="150"
   inkscape:export-filename="universitaet-bremen.png"
   inkscape:export-xdpi="96"
   inkscape:export-ydpi="96"
   inkscape:version="1.3.2 (091e20e, 2023-11-25)"
   xmlns:inkscape="http://www.inkscape.org/namespaces/inkscape"
   xmlns:sodipodi="http://sodipodi.sourceforge.net/DTD/sodipodi-0.dtd"
   xmlns="http://www.w3.org/2000/svg"
   xmlns:svg="http://www.w3.org/2000/svg">
  <defs
     id="defs3" />
  <sodipodi:namedview
     id="namedview3"
     pagecolor="#ffffff"
     bordercolor="#000000"
     borderopacity="0.25"
     inkscape:showpageshadow="2"
     inkscape:pageopacity="0.0"
     inkscape:pagecheckerboard="0"
     inkscape:deskcolor="#d1d1d1"
     inkscape:export-bgcolor="#ffffffff"
     inkscape:zoom="1.5733333"
     inkscape:cx="75"
     inkscape:cy="75"
     inkscape:window-width="2560"
     inkscape:window-height="1387"
     inkscape:window-x="0"
     inkscape:window-y="25"
     inkscape:window-maximized="1"
     inkscape:current-layer="logosandtypes_com" />
  <style
     id="style1">.st1{fill:#d71341}</style>
  <path
     d="M 0,0 H 150 V 150 H 0 Z"
     fill="none"
     id="Layer_3" />
  <g
     id="universitaet_bremen">
    <path
       class="st1"
       d="m 53.2,72.3 c 0,11.8 9.4,21.1 20.6,21.1 11.4,0 20.6,-9.3 20.6,-21.1 v -54 H 84.2 v 54 C 84.3,78 79.7,82.6 74,82.7 H 73.8 C 68.1,82.6 63.5,78 63.5,72.3 V 39.8 H 53.2 Z M 22.3,29 V 18.3 h -10 V 29 Z M 32.6,39.7 V 29 H 22.3 V 39.7 Z M 42.9,29 V 18.3 H 32.6 V 29 Z m 20.6,0 H 53.2 V 18.3 H 63.5 Z M 53.2,39.7 H 42.9 V 29 h 10.3 z"
       id="path1" />
    <path
       class="st1"
       d="m 135.9,18.3 v 54 c 0,35.4 -27.8,64.1 -61.9,64.1 -31.7,0 -58.1,-24.8 -61.6,-56.7 v -40 h 9.9 v 32.5 c 0,29.5 23.2,53.3 51.7,53.3 28.5,0 51.6,-23.8 51.6,-53.3 v -54 z"
       id="path2" />
    <path
       class="st1"
       d="m 104.9,18.3 v 54 c 0,17.7 -13.9,31.9 -31,31.9 -17.1,0 -31,-14.1 -31,-31.9 V 39.7 H 32.6 v 32.5 c 0,23.6 18.6,42.5 41.3,42.5 22.7,0 41.3,-18.9 41.3,-42.5 v -54 z"
       id="path3" />
  </g>
</svg>
